<svg xmlns="http://www.w3.org/2000/svg" viewBox="0 0 1200 1600">
  <rect width="1200" height="1600" fill="#efefed"/>
  <rect x="0" y="0" width="1200" height="1175" fill="#ece9e5"/>
  <path d="M0 1175h1200v425H0z" fill="url(#floor)"/>
  <rect x="355" y="410" width="180" height="520" rx="8" fill="#ececec" stroke="#4e4e4e" stroke-width="8"/>
  <rect x="375" y="432" width="140" height="120" fill="#fcfcfb"/>
  <rect x="375" y="560" width="140" height="120" fill="#fcfcfb"/>
  <rect x="375" y="688" width="140" height="120" fill="#fcfcfb"/>
  <rect x="375" y="816" width="140" height="90" fill="#fcfcfb"/>
  <rect x="410" y="455" width="70" height="52" rx="10" fill="#87b58d"/>
  <rect x="395" y="565" width="100" height="55" rx="10" fill="#a46a66"/>
  <rect x="400" y="692" width="90" height="48" rx="10" fill="#d2e1df"/>
  <rect x="400" y="828" width="82" height="40" rx="8" fill="#bed7ba"/>
  <rect x="650" y="870" width="165" height="185" rx="24" fill="#141414"/>
  <rect x="805" y="820" width="225" height="430" rx="26" fill="#fafaf9" stroke="#d7d5d0" stroke-width="8"/>
  <rect x="850" y="900" width="130" height="280" rx="18" fill="#222222"/>
  <rect x="1010" y="865" width="170" height="250" rx="14" fill="#f7f7f6" stroke="#dad7d2" stroke-width="8"/>
  <rect x="20" y="1000" width="270" height="60" rx="8" fill="#1d1d1d"/>
  <rect x="0" y="1060" width="360" height="36" rx="6" fill="#fdfdfb"/>
  <rect x="95" y="1110" width="140" height="290" rx="12" fill="#1c1c1c"/>
  <rect x="560" y="500" width="125" height="18" rx="6" fill="#f8f7f5"/>
  <rect x="560" y="530" width="125" height="18" rx="6" fill="#f8f7f5"/>
  <rect x="560" y="560" width="125" height="18" rx="6" fill="#f8f7f5"/>
  <rect x="720" y="420" width="250" height="250" fill="#8a7d78"/>
  <rect x="742" y="440" width="95" height="210" fill="#60746f"/>
  <rect x="845" y="440" width="102" height="210" fill="#6e6661"/>
  <rect x="955" y="420" width="60" height="170" fill="#f3f2f0"/>
  <rect x="955" y="602" width="60" height="18" fill="#f3f2f0"/>
  <rect x="655" y="355" width="25" height="80" fill="#faf9f7"/>
  <path d="M682 330c65 30 125 5 215 78" stroke="#30593a" stroke-width="18" fill="none" stroke-linecap="round"/>
  <rect x="730" y="780" width="40" height="160" fill="#ffffff"/>
  <rect x="710" y="930" width="80" height="22" rx="6" fill="#f0f0ef"/>
  <circle cx="850" cy="120" r="26" fill="#ffffff"/>
  <circle cx="1030" cy="180" r="22" fill="#ffffff"/>
  <defs>
    <pattern id="floor" width="120" height="120" patternUnits="userSpaceOnUse">
      <rect width="120" height="120" fill="#ece9e5"/>
      <rect width="60" height="60" fill="#7e8185"/>
      <rect x="60" y="60" width="60" height="60" fill="#7e8185"/>
    </pattern>
  </defs>
</svg>
